<?xml version="1.0" standalone="no"?>
<!DOCTYPE svg PUBLIC "-//W3C//DTD SVG 20010904//EN"
 "http://www.w3.org/TR/2001/REC-SVG-20010904/DTD/svg10.dtd">
<svg version="1.0" xmlns="http://www.w3.org/2000/svg"
 width="30.000000pt" height="30.000000pt" viewBox="0 0 30.000000 30.000000"
 preserveAspectRatio="xMidYMid meet">
<metadata>
Created by potrace 1.16, written by Peter Selinger 2001-2019
</metadata>
<g transform="translate(0.000000,30.000000) scale(0.052632,-0.052632)"
fill="#000000" stroke="none">
<path d="M211 307 c-61 -21 -67 -60 -15 -94 42 -27 192 -26 231 3 35 26 39 45
16 71 -15 17 -33 22 -108 26 -55 3 -103 1 -124 -6z"/>
<path d="M72 148 c-13 -13 -16 -87 -6 -125 6 -23 7 -23 225 -23 157 0 219 3
219 11 0 11 -70 109 -77 109 -2 0 -17 -9 -32 -21 -26 -19 -39 -21 -134 -17
-86 2 -109 6 -126 22 -12 11 -21 27 -21 38 0 21 -29 25 -48 6z"/>
</g>
</svg>
