<?xml version="1.0" standalone="no"?>
<!DOCTYPE svg PUBLIC "-//W3C//DTD SVG 20010904//EN"
 "http://www.w3.org/TR/2001/REC-SVG-20010904/DTD/svg10.dtd">
<svg version="1.0" xmlns="http://www.w3.org/2000/svg"
 width="60.000000pt" height="60.000000pt" viewBox="0 0 60.000000 60.000000"
 preserveAspectRatio="xMidYMid meet">
<metadata>
Created by potrace 1.16, written by Peter Selinger 2001-2019
</metadata>
<g transform="translate(0.000000,60.000000) scale(0.093750,-0.093750)"
fill="#000000" stroke="none">
<path d="M236 346 c-92 -34 -69 -102 42 -125 116 -25 232 10 232 69 0 46 -23
60 -98 60 -37 0 -83 2 -102 5 -19 3 -53 -1 -74 -9z"/>
<path d="M103 179 c-33 -12 -46 -45 -38 -98 12 -89 -14 -81 260 -81 139 0 246
4 250 9 3 5 -17 37 -45 70 -50 60 -51 60 -70 41 -28 -28 -56 -32 -169 -28
-110 3 -151 21 -161 70 -4 21 -9 24 -27 17z"/>
</g>
</svg>
